<svg width="603" height="523" viewBox="0 0 603 523" fill="none" xmlns="http://www.w3.org/2000/svg">
<mask id="mask0" mask-type="alpha" maskUnits="userSpaceOnUse" x="0" y="0" width="603" height="523">
<rect width="603" height="523" rx="4" fill="white"/>
</mask>
<g mask="url(#mask0)">
<path d="M604 38.5C604 83.2598 568.557 119 525.5 119C482.443 119 447 83.2598 447 38.5C447 -6.25979 482.443 -42 525.5 -42C568.557 -42 604 -6.2598 604 38.5Z" stroke="#ECEFF1" stroke-width="30"/>
<path d="M409 299.023C409 316.476 395.253 330.045 379 330.045C362.747 330.045 349 316.476 349 299.023C349 281.57 362.747 268 379 268C395.253 268 409 281.57 409 299.023Z" stroke="#ECEFF1" stroke-width="30"/>
<circle cx="130.5" cy="411.5" r="176.5" stroke="#ECEFF1" stroke-width="30"/>
</g>
</svg>
