<svg width="252" height="104" viewBox="0 0 252 104" fill="none" xmlns="http://www.w3.org/2000/svg">
<path d="M248.438 99.1689C248.438 98.8564 248.328 98.6156 248.106 98.4463C247.888 98.277 247.493 98.1061 246.92 97.9336C246.347 97.7611 245.891 97.569 245.553 97.3574C244.905 96.9505 244.581 96.4199 244.581 95.7656C244.581 95.1927 244.814 94.7207 245.279 94.3496C245.748 93.9785 246.355 93.793 247.101 93.793C247.595 93.793 248.036 93.8841 248.424 94.0664C248.811 94.2487 249.116 94.5091 249.337 94.8477C249.558 95.1829 249.669 95.5557 249.669 95.9658H248.438C248.438 95.5947 248.321 95.305 248.087 95.0967C247.856 94.8851 247.524 94.7793 247.091 94.7793C246.687 94.7793 246.373 94.8656 246.148 95.0381C245.927 95.2106 245.816 95.4515 245.816 95.7607C245.816 96.0212 245.937 96.2393 246.178 96.415C246.419 96.5876 246.816 96.7568 247.369 96.9229C247.923 97.0856 248.367 97.2728 248.702 97.4844C249.037 97.6927 249.283 97.9336 249.439 98.207C249.596 98.4772 249.674 98.7946 249.674 99.1592C249.674 99.7516 249.446 100.224 248.99 100.575C248.538 100.924 247.923 101.098 247.145 101.098C246.63 101.098 246.157 101.003 245.724 100.814C245.294 100.622 244.959 100.359 244.718 100.023C244.48 99.6882 244.361 99.2975 244.361 98.8516H245.597C245.597 99.2552 245.73 99.5677 245.997 99.7891C246.264 100.01 246.646 100.121 247.145 100.121C247.574 100.121 247.896 100.035 248.111 99.8623C248.329 99.6865 248.438 99.4554 248.438 99.1689Z" fill="#212121"/>
<path d="M243 4C243 1.79086 244.791 0 247 0H248C250.209 0 252 1.79086 252 4V84H243V4Z" fill="#80DEEA"/>
<path d="M243 44C243 41.7909 244.791 40 247 40H248C250.209 40 252 41.7909 252 44V84H243V44Z" fill="#0097A7"/>
<path d="M207.938 99.1689C207.938 98.8564 207.828 98.6156 207.606 98.4463C207.388 98.277 206.993 98.1061 206.42 97.9336C205.847 97.7611 205.391 97.569 205.053 97.3574C204.405 96.9505 204.081 96.4199 204.081 95.7656C204.081 95.1927 204.314 94.7207 204.779 94.3496C205.248 93.9785 205.855 93.793 206.601 93.793C207.095 93.793 207.536 93.8841 207.924 94.0664C208.311 94.2487 208.616 94.5091 208.837 94.8477C209.058 95.1829 209.169 95.5557 209.169 95.9658H207.938C207.938 95.5947 207.821 95.305 207.587 95.0967C207.356 94.8851 207.024 94.7793 206.591 94.7793C206.187 94.7793 205.873 94.8656 205.648 95.0381C205.427 95.2106 205.316 95.4515 205.316 95.7607C205.316 96.0212 205.437 96.2393 205.678 96.415C205.919 96.5876 206.316 96.7568 206.869 96.9229C207.423 97.0856 207.867 97.2728 208.202 97.4844C208.537 97.6927 208.783 97.9336 208.939 98.207C209.096 98.4772 209.174 98.7946 209.174 99.1592C209.174 99.7516 208.946 100.224 208.49 100.575C208.038 100.924 207.423 101.098 206.645 101.098C206.13 101.098 205.657 101.003 205.224 100.814C204.794 100.622 204.459 100.359 204.218 100.023C203.98 99.6882 203.861 99.2975 203.861 98.8516H205.097C205.097 99.2552 205.23 99.5677 205.497 99.7891C205.764 100.01 206.146 100.121 206.645 100.121C207.074 100.121 207.396 100.035 207.611 99.8623C207.829 99.6865 207.938 99.4554 207.938 99.1689Z" fill="#212121"/>
<path d="M203 4C203 1.79086 204.791 0 207 0H208C210.209 0 212 1.79086 212 4V84H203V4Z" fill="#80DEEA"/>
<path d="M203 56C203 53.7909 204.791 52 207 52H208C210.209 52 212 53.7909 212 56V84H203V56Z" fill="#0097A7"/>
<path d="M168.819 97.9873H165.958V101H164.723V93.8906H169.239V94.8867H165.958V97.001H168.819V97.9873Z" fill="#212121"/>
<path d="M162 4C162 1.79086 163.791 0 166 0H167C169.209 0 171 1.79086 171 4V84H162V4Z" fill="#80DEEA"/>
<path d="M162 68C162 65.7909 163.791 64 166 64H167C169.209 64 171 65.7909 171 68V84H162V68Z" fill="#0097A7"/>
<path d="M128.359 94.8867H126.143V101H124.917V94.8867H122.72V93.8906H128.359V94.8867Z" fill="#212121"/>
<path d="M122 4C122 1.79086 123.791 0 126 0H127C129.209 0 131 1.79086 131 4V84H122V4Z" fill="#80DEEA"/>
<path d="M122 46C122 43.7909 123.791 42 126 42H127C129.209 42 131 43.7909 131 46V84H122V46Z" fill="#0097A7"/>
<path d="M87.2988 99.2422L88.3926 93.8906H89.6182L87.9775 101H86.7959L85.4434 95.8096L84.0615 101H82.875L81.2344 93.8906H82.46L83.5635 99.2324L84.9209 93.8906H85.9561L87.2988 99.2422Z" fill="#212121"/>
<path d="M81 4C81 1.79086 82.7909 0 85 0H86C88.2091 0 90 1.79086 90 4V84H81V4Z" fill="#80DEEA"/>
<path d="M81 51C81 48.7909 82.7909 47 85 47H86C88.2091 47 90 48.7909 90 51V84H81V51Z" fill="#0097A7"/>
<path d="M47.3594 94.8867H45.1426V101H43.917V94.8867H41.7197V93.8906H47.3594V94.8867Z" fill="#212121"/>
<path d="M41 4C41 1.79086 42.7909 0 45 0H46C48.2091 0 50 1.79086 50 4V84H41V4Z" fill="#80DEEA"/>
<path d="M41 41C41 38.7909 42.7909 37 45 37H46C48.2091 37 50 38.7909 50 41V84H41V41Z" fill="#0097A7"/>
<path d="M2.32422 93.8906L4.375 99.3398L6.4209 93.8906H8.01758V101H6.78711V98.6562L6.90918 95.5215L4.80957 101H3.92578L1.83105 95.5264L1.95312 98.6562V101H0.722656V93.8906H2.32422Z" fill="#212121"/>
<path d="M0 4C0 1.79086 1.79086 0 4 0H5C7.20914 0 9 1.79086 9 4V84H0V4Z" fill="#80DEEA"/>
<path d="M0 13C0 10.7909 1.79086 9 4 9H5C7.20914 9 9 10.7909 9 13V84H0V13Z" fill="#0097A7"/>
</svg>
