<svg width="105" height="35" viewBox="0 0 105 35" fill="none" xmlns="http://www.w3.org/2000/svg">
<path d="M-0.177998 7.53276L-0.5 7.65542V8V35V35.5H0H105H105.5V35V2V1.37282L104.889 1.51257L92.3982 4.36751C91.9254 4.47559 91.4731 4.65943 91.0589 4.91189L78.9217 12.3098C78.6707 12.4628 78.4015 12.5835 78.1204 12.6692L66.9295 16.0797C66.1119 16.3289 65.2314 16.2703 64.454 15.9149L54.6394 11.4282C53.2806 10.8071 51.7021 10.9008 50.4264 11.6784L40.6466 17.6393C39.794 18.1591 38.7599 18.2898 37.8047 17.9987L27.2611 14.7854C26.7626 14.6335 26.3043 14.3722 25.9197 14.0206L15.2818 4.29441C14.0268 3.14704 12.2323 2.80502 10.6433 3.41035L-0.177998 7.53276Z" fill="url(#paint0_linear)" stroke="#43A047"/>
<defs>
<linearGradient id="paint0_linear" x1="52.5" y1="-1" x2="52.5" y2="35" gradientUnits="userSpaceOnUse">
<stop stop-color="#43A047" stop-opacity="0.5"/>
<stop offset="1" stop-color="#43A047" stop-opacity="0"/>
</linearGradient>
</defs>
</svg>
