<svg width="105" height="37" viewBox="0 0 105 37" fill="none" xmlns="http://www.w3.org/2000/svg">
<mask id="mask0" mask-type="alpha" maskUnits="userSpaceOnUse" x="0" y="0" width="105" height="37">
<rect width="105" height="37" fill="white"/>
</mask>
<g mask="url(#mask0)">
<path d="M-0.177998 9.53276L-0.5 9.65542V10V37V37.5H0H105H105.5V37V4V3.37282L104.889 3.51257L92.3982 6.36751C91.9254 6.47559 91.4731 6.65943 91.0589 6.91189L78.9217 14.3098C78.6707 14.4628 78.4015 14.5835 78.1204 14.6692L66.9295 18.0797C66.1119 18.3289 65.2314 18.2703 64.454 17.9149L54.6394 13.4282C53.2806 12.8071 51.7021 12.9008 50.4264 13.6784L40.6466 19.6393C39.794 20.1591 38.7599 20.2898 37.8047 19.9987L27.2611 16.7854C26.7626 16.6335 26.3043 16.3722 25.9197 16.0206L15.2818 6.29441C14.0268 5.14704 12.2323 4.80502 10.6433 5.41035L-0.177998 9.53276Z" fill="url(#paint0_linear)" stroke="#43A047"/>
</g>
<defs>
<linearGradient id="paint0_linear" x1="52.5" y1="1" x2="52.5" y2="37" gradientUnits="userSpaceOnUse">
<stop stop-color="#43A047" stop-opacity="0.5"/>
<stop offset="1" stop-color="#43A047" stop-opacity="0"/>
</linearGradient>
</defs>
</svg>
