<svg width="105" height="37" viewBox="0 0 105 37" fill="none" xmlns="http://www.w3.org/2000/svg">
<mask id="mask0" mask-type="alpha" maskUnits="userSpaceOnUse" x="0" y="0" width="105" height="37">
<rect width="105" height="37" fill="white"/>
</mask>
<g mask="url(#mask0)">
<path d="M0 14.5H-0.5V15V37V37.5H0H105H105.5V37V26V25.7366L105.283 25.5876L92.4427 16.783C92.2294 16.6367 92.0039 16.5092 91.7687 16.4016L81.4719 11.6945C79.7698 10.9164 77.7639 11.273 76.4342 12.59L66.5708 22.3595C65.8496 23.0738 64.8539 23.4398 63.8419 23.3627L53.8189 22.599C53.09 22.5435 52.3968 22.2612 51.8366 21.7916L42.6973 14.132C40.8211 12.5596 38.0322 12.7754 36.4202 14.6176L28.5658 23.594C27.2733 25.0712 25.0188 25.1969 23.5701 23.8724L14.6085 15.6789C13.7791 14.9205 12.6959 14.5 11.572 14.5H0Z" fill="url(#paint0_linear)" stroke="white"/>
</g>
<defs>
<linearGradient id="paint0_linear" x1="52.5" y1="1" x2="52.5" y2="37" gradientUnits="userSpaceOnUse">
<stop stop-color="white" stop-opacity="0.5"/>
<stop offset="1" stop-color="white" stop-opacity="0"/>
</linearGradient>
</defs>
</svg>
