<svg width="105" height="37" viewBox="0 0 105 37" fill="none" xmlns="http://www.w3.org/2000/svg">
<mask id="mask0" mask-type="alpha" maskUnits="userSpaceOnUse" x="0" y="0" width="105" height="37">
<rect width="105" height="37" fill="white"/>
</mask>
<g mask="url(#mask0)">
<path d="M0.404004 6.70541L-0.5 5.46564V7V37V37.5H0H105H105.5V37V14V13.3728L104.889 13.5126L92.3982 16.3675C91.9254 16.4756 91.4731 16.6594 91.0589 16.9119L81.266 22.8809C79.8508 23.7435 78.0246 23.4952 76.891 22.2861L66.8255 11.5494C66.2127 10.8958 65.4187 10.44 64.5453 10.2403L54.7552 8.00258C53.2534 7.6593 51.6803 8.10815 50.5858 9.19227L40.4522 19.2293C39.6655 20.0085 38.5565 20.3695 37.4619 20.2027L27.5053 18.6855C26.6392 18.5535 25.7534 18.6773 24.9565 19.0415L15.8878 23.1873C14.375 23.8788 12.5845 23.4102 11.6046 22.0662L0.404004 6.70541Z" fill="url(#paint0_linear)" stroke="#43A047"/>
</g>
<defs>
<linearGradient id="paint0_linear" x1="52.5" y1="1" x2="52.5" y2="37" gradientUnits="userSpaceOnUse">
<stop stop-color="#43A047" stop-opacity="0.5"/>
<stop offset="1" stop-color="#43A047" stop-opacity="0"/>
</linearGradient>
</defs>
</svg>
