<svg width="105" height="37" viewBox="0 0 105 37" fill="none" xmlns="http://www.w3.org/2000/svg">
<mask id="mask0" mask-type="alpha" maskUnits="userSpaceOnUse" x="0" y="0" width="105" height="37">
<rect width="105" height="37" fill="white"/>
</mask>
<g mask="url(#mask0)">
<path d="M0.177998 19.5328L-0.5 19.2745V20V37V37.5H0H105H105.5V37V12V11.2745L104.822 11.5328L92.6818 16.1576C92.117 16.3728 91.5061 16.438 90.9085 16.347L80.3871 14.7437C79.2582 14.5717 78.1061 14.8353 77.1643 15.4811L67.2089 22.3076C66.1955 23.0025 64.8919 23.1151 63.7744 22.6042L53.0804 17.7155C52.8017 17.5882 52.5108 17.4896 52.2122 17.4213L41.8151 15.0448C40.2015 14.676 38.5157 15.2228 37.4257 16.4684L27.7067 27.5759C26.7427 28.6776 25.1948 29.063 23.8267 28.5418L13.303 24.5328L0.177998 19.5328Z" fill="url(#paint0_linear)" stroke="white"/>
</g>
<defs>
<linearGradient id="paint0_linear" x1="52.5" y1="1" x2="52.5" y2="37" gradientUnits="userSpaceOnUse">
<stop stop-color="white" stop-opacity="0.5"/>
<stop offset="1" stop-color="white" stop-opacity="0"/>
</linearGradient>
</defs>
</svg>
