<svg width="246" height="65" viewBox="0 0 246 65" fill="none" xmlns="http://www.w3.org/2000/svg">
<mask id="mask0" mask-type="alpha" maskUnits="userSpaceOnUse" x="0" y="0" width="246" height="65">
<rect width="246" height="65" fill="white"/>
</mask>
<g mask="url(#mask0)">
<path d="M-0.0926746 25.8421L-0.5 25.9189V26.3334V65.0001V65.5001H0H246H246.5V65.0001V48.5V48.1922L246.225 48.0536L218.967 34.3139C216.61 33.1255 213.891 32.8689 211.352 33.5954L184.378 41.315L154.696 47.7823C154.031 47.927 153.353 48 152.673 48H126.867C124.503 48 122.224 47.1187 120.475 45.5281L98.4661 25.5111C94.8516 22.2237 89.4473 21.8639 85.4288 24.643L66.9037 37.455C63.6522 39.7037 59.3478 39.7037 56.0962 37.455L32.4089 21.0728C31.4195 20.3885 30.1973 20.1289 29.0151 20.3519L-0.0926746 25.8421Z" fill="url(#paint0_linear)" stroke="#00ACC1"/>
</g>
<defs>
<linearGradient id="paint0_linear" x1="123" y1="-4.6" x2="123" y2="65" gradientUnits="userSpaceOnUse">
<stop stop-color="#00ACC1" stop-opacity="0.5"/>
<stop offset="1" stop-color="#00ACC1" stop-opacity="0"/>
</linearGradient>
</defs>
</svg>
