<svg width="246" height="65" viewBox="0 0 246 65" fill="none" xmlns="http://www.w3.org/2000/svg">
<mask id="mask0" mask-type="alpha" maskUnits="userSpaceOnUse" x="0" y="0" width="246" height="65">
<rect width="246" height="65" fill="white"/>
</mask>
<g mask="url(#mask0)">
<path d="M0.176479 29.7322L-0.5 29.477V30.2V65.0001V65.5001H0H246H246.5V65.0001V9.5V8.65627L245.76 9.06142L218.149 24.1765C216.221 25.232 213.986 25.5862 211.826 25.1788L185.919 20.2922C185.083 20.1345 184.272 19.8652 183.507 19.4915L160.962 8.46908C156.644 6.35826 151.444 7.4482 148.338 11.1153L126.646 36.7229C124.304 39.4874 120.593 40.6792 117.08 39.7956L95.5354 34.3774C93.3769 33.8346 91.1019 33.9916 89.0385 34.8259L63.8579 45.0073C62.2752 45.6473 60.5492 45.8489 58.8615 45.5909L31.2404 41.3692C30.9991 41.3323 30.7623 41.2703 30.5338 41.1841L0.176479 29.7322Z" fill="url(#paint0_linear)" stroke="#00ACC1"/>
</g>
<defs>
<linearGradient id="paint0_linear" x1="123" y1="-4.6" x2="123" y2="65" gradientUnits="userSpaceOnUse">
<stop stop-color="#00ACC1" stop-opacity="0.5"/>
<stop offset="1" stop-color="#00ACC1" stop-opacity="0"/>
</linearGradient>
</defs>
</svg>
